<svg width="24" height="24" viewBox="0 0 24 24" fill="none" xmlns="http://www.w3.org/2000/svg">
<path d="M3.87472 19.8307C4.70228 19.797 5.2765 19.5436 5.59739 19.0707C5.91828 18.5979 6.07872 17.8885 6.07872 16.9427L6.05339 4.98541H6.00272L2.96272 6.93608L2.45605 6.20141L7.39606 2.52808H8.25739L8.28272 17.9054C8.28272 18.7499 8.25739 19.3325 8.20672 19.6534L10.3347 19.5521V20.6667H3.87472V19.8307Z" fill="#EA580C"/>
<path d="M13.1026 19.8307C13.9301 19.797 14.5044 19.5436 14.8253 19.0707C15.1461 18.5979 15.3066 17.8885 15.3066 16.9427L15.2813 4.98541H15.2306L12.1906 6.93608L11.6839 6.20141L16.6239 2.52808H17.4853L17.5106 17.9054C17.5106 18.7499 17.4853 19.3325 17.4346 19.6534L19.5626 19.5521V20.6667H13.1026V19.8307Z" fill="#EA580C"/>
<rect x="7.8606" y="5" width="16.4525" height="1" transform="rotate(59.3857 7.8606 5)" fill="#EA580C"/>
</svg>
